<svg width="24" height="24" viewBox="0 0 24 24" fill="none" xmlns="http://www.w3.org/2000/svg">
<path d="M18.2 21.0001H6.2C5.53727 21.0001 5 20.4628 5 19.8001V19.3992C5 17.6554 6.08183 16.0946 7.7147 15.4826C10.6067 14.3987 13.7933 14.3987 16.6853 15.4826C18.3182 16.0946 19.4 17.6554 19.4 19.3992V19.8001C19.4 20.4628 18.8627 21.0001 18.2 21.0001Z" stroke="#222222" stroke-linecap="round" stroke-linejoin="round"/>
<path d="M10.2473 11.6602C11.3957 12.2501 12.758 12.2501 13.9064 11.6602C14.9752 11.1112 15.7409 10.1113 15.9923 8.93633L16.0594 8.62274C16.3165 7.42124 16.0419 6.16727 15.3062 5.18318L15.1984 5.03909C14.4626 4.05488 13.3057 3.47534 12.0768 3.47534C10.848 3.47534 9.69106 4.05488 8.95525 5.03909L8.84752 5.18318C8.11177 6.16727 7.83718 7.42124 8.09425 8.62274L8.16136 8.93633C8.41276 10.1113 9.17851 11.1112 10.2473 11.6602Z" stroke="#222222" stroke-linecap="round" stroke-linejoin="round"/>
</svg>
